<svg width="20" height="20" viewBox="0 0 20 20" fill="none" xmlns="http://www.w3.org/2000/svg">
<path d="M9.89935 7.61675C10.966 7.66675 11.241 8.57508 11.2577 9.00008H12.7493C12.6827 7.35008 11.5077 6.34175 9.87435 6.34175C8.03268 6.34175 6.66602 7.50008 6.66602 10.1167C6.66602 11.7334 7.44102 13.6501 9.86602 13.6501C11.716 13.6501 12.7077 12.2751 12.7327 11.1917H11.241C11.216 11.6834 10.866 12.3417 9.88268 12.3917C8.79102 12.3584 8.33268 11.5084 8.33268 10.1167C8.33268 7.70841 9.39935 7.63341 9.89935 7.61675ZM9.99935 1.66675C5.39935 1.66675 1.66602 5.40008 1.66602 10.0001C1.66602 14.6001 5.39935 18.3334 9.99935 18.3334C14.5993 18.3334 18.3327 14.6001 18.3327 10.0001C18.3327 5.40008 14.5993 1.66675 9.99935 1.66675ZM9.99935 16.6667C6.32435 16.6667 3.33268 13.6751 3.33268 10.0001C3.33268 6.32508 6.32435 3.33341 9.99935 3.33341C13.6743 3.33341 16.666 6.32508 16.666 10.0001C16.666 13.6751 13.6743 16.6667 9.99935 16.6667Z" fill="#0A0A0B"/>
</svg>
