<svg width="24" height="25" viewBox="0 0 24 25" fill="none" xmlns="http://www.w3.org/2000/svg">
<path d="M12 15.5452C13.6569 15.5452 15 14.202 15 12.5452C15 10.8883 13.6569 9.54517 12 9.54517C10.3431 9.54517 9 10.8883 9 12.5452C9 14.202 10.3431 15.5452 12 15.5452Z" stroke="#667085" stroke-width="2" stroke-linecap="round" stroke-linejoin="round"/>
<path d="M19.4 15.5452C19.2669 15.8468 19.2272 16.1814 19.286 16.5058C19.3448 16.8301 19.4995 17.1295 19.73 17.3652L19.79 17.4252C19.976 17.6109 20.1235 17.8315 20.2241 18.0743C20.3248 18.3171 20.3766 18.5773 20.3766 18.8402C20.3766 19.103 20.3248 19.3633 20.2241 19.606C20.1235 19.8488 19.976 20.0694 19.79 20.2552C19.6043 20.4411 19.3837 20.5886 19.1409 20.6893C18.8981 20.7899 18.6378 20.8417 18.375 20.8417C18.1122 20.8417 17.8519 20.7899 17.6091 20.6893C17.3663 20.5886 17.1457 20.4411 16.96 20.2552L16.9 20.1952C16.6643 19.9646 16.365 19.81 16.0406 19.7512C15.7162 19.6923 15.3816 19.7321 15.08 19.8652C14.7842 19.9919 14.532 20.2024 14.3543 20.4707C14.1766 20.739 14.0813 21.0534 14.08 21.3752V21.5452C14.08 22.0756 13.8693 22.5843 13.4942 22.9594C13.1191 23.3345 12.6104 23.5452 12.08 23.5452C11.5496 23.5452 11.0409 23.3345 10.6658 22.9594C10.2907 22.5843 10.08 22.0756 10.08 21.5452V21.4552C10.0723 21.1242 9.96512 20.8032 9.77251 20.5339C9.5799 20.2646 9.31074 20.0594 9 19.9452C8.69838 19.8121 8.36381 19.7723 8.03941 19.8312C7.71502 19.89 7.41568 20.0446 7.18 20.2752L7.12 20.3352C6.93425 20.5211 6.71368 20.6686 6.47088 20.7693C6.22808 20.8699 5.96783 20.9217 5.705 20.9217C5.44217 20.9217 5.18192 20.8699 4.93912 20.7693C4.69632 20.6686 4.47575 20.5211 4.29 20.3352C4.10405 20.1494 3.95653 19.9288 3.85588 19.686C3.75523 19.4433 3.70343 19.183 3.70343 18.9202C3.70343 18.6573 3.75523 18.3971 3.85588 18.1543C3.95653 17.9115 4.10405 17.6909 4.29 17.5052L4.35 17.4452C4.58054 17.2095 4.73519 16.9101 4.794 16.5858C4.85282 16.2614 4.81312 15.9268 4.68 15.6252C4.55324 15.3294 4.34276 15.0771 4.07447 14.8995C3.80618 14.7218 3.49179 14.6264 3.17 14.6252H3C2.46957 14.6252 1.96086 14.4145 1.58579 14.0394C1.21071 13.6643 1 13.1556 1 12.6252C1 12.0947 1.21071 11.586 1.58579 11.211C1.96086 10.8359 2.46957 10.6252 3 10.6252H3.09C3.42099 10.6174 3.742 10.5103 4.0113 10.3177C4.28059 10.1251 4.48572 9.8559 4.6 9.54517C4.73312 9.24355 4.77282 8.90897 4.714 8.58458C4.65519 8.26018 4.50054 7.96084 4.27 7.72517L4.21 7.66517C4.02405 7.47942 3.87653 7.25884 3.77588 7.01605C3.67523 6.77325 3.62343 6.513 3.62343 6.25017C3.62343 5.98733 3.67523 5.72708 3.77588 5.48429C3.87653 5.24149 4.02405 5.02091 4.21 4.83517C4.39575 4.64921 4.61632 4.5017 4.85912 4.40105C5.10192 4.3004 5.36217 4.24859 5.625 4.24859C5.88783 4.24859 6.14808 4.3004 6.39088 4.40105C6.63368 4.5017 6.85425 4.64921 7.04 4.83517L7.1 4.89517C7.33568 5.1257 7.63502 5.28035 7.95941 5.33917C8.28381 5.39799 8.61838 5.35828 8.92 5.22517H9C9.29577 5.0984 9.54802 4.88792 9.72569 4.61963C9.90337 4.35134 9.99872 4.03695 10 3.71517V3.54517C10 3.01473 10.2107 2.50603 10.5858 2.13095C10.9609 1.75588 11.4696 1.54517 12 1.54517C12.5304 1.54517 13.0391 1.75588 13.4142 2.13095C13.7893 2.50603 14 3.01473 14 3.54517V3.63517C14.0013 3.95695 14.0966 4.27134 14.2743 4.53963C14.452 4.80792 14.7042 5.0184 15 5.14517C15.3016 5.27828 15.6362 5.31799 15.9606 5.25917C16.285 5.20035 16.5843 5.0457 16.82 4.81517L16.88 4.75517C17.0657 4.56921 17.2863 4.4217 17.5291 4.32105C17.7719 4.2204 18.0322 4.16859 18.295 4.16859C18.5578 4.16859 18.8181 4.2204 19.0609 4.32105C19.3037 4.4217 19.5243 4.56921 19.71 4.75517C19.896 4.94091 20.0435 5.16149 20.1441 5.40429C20.2448 5.64708 20.2966 5.90734 20.2966 6.17017C20.2966 6.433 20.2448 6.69325 20.1441 6.93605C20.0435 7.17884 19.896 7.39942 19.71 7.58517L19.65 7.64517C19.4195 7.88085 19.2648 8.18018 19.206 8.50458C19.1472 8.82897 19.1869 9.16355 19.32 9.46517V9.54517C19.4468 9.84094 19.6572 10.0932 19.9255 10.2709C20.1938 10.4485 20.5082 10.5439 20.83 10.5452H21C21.5304 10.5452 22.0391 10.7559 22.4142 11.131C22.7893 11.506 23 12.0147 23 12.5452C23 13.0756 22.7893 13.5843 22.4142 13.9594C22.0391 14.3345 21.5304 14.5452 21 14.5452H20.91C20.5882 14.5464 20.2738 14.6418 20.0055 14.8195C19.7372 14.9971 19.5268 15.2494 19.4 15.5452Z" stroke="#667085" stroke-width="2" stroke-linecap="round" stroke-linejoin="round"/>
</svg>
